#!OML:ASF I:\Actors\actors\Patient Classification 2\Patient 1\Session 1\actor1.ASF
:FULLY-SPECIFIED
:DEGREES
562
root -0.932958 18.2532 5.88823 3.10302 1.95077 -4.1418
lowerback 11.2566 2.3756 4.99738
upperback -2.07369 3.97387 1.02432
thorax -8.2756 1.713 -2.43492
lowerneck -7.0031 -4.16562 -0.949252
upperneck -23.5245 -5.21908 2.12489
head -5.9286 -2.55671 0.982684
rclavicle 2.48978e-014 1.39149e-014
rhumerus 28.6359 19.779 -61.4047
rradius 126.04
rwrist -4.41693
rhand -31.0367 -14.4458
rfingers 7.12502
rthumb -4.31856 -44.3817
lclavicle 2.48978e-014 1.39149e-014
lhumerus -39.5256 -33.1597 98.3661
lradius 86.8945
lwrist 8.38033
lhand -1.25001 -22.5511
lfingers 7.12502
lthumb 24.3926 5.91632
rfemur 0 0 0
rtibia 0
rfoot 0 0
rtoes 0
lfemur 13.4831 -7.76765 -12.4313
ltibia -17.8762
lfoot -1.95272 18.042
ltoes -11.658
563
root -0.934673 18.2536 5.89253 3.11168 1.9807 -4.08965
lowerback 11.2249 2.40059 4.91971
upperback -2.10645 3.99284 0.989653
thorax -8.29375 1.72409 -2.43088
lowerneck -7.01158 -4.13454 -0.982541
upperneck -23.3985 -5.17903 2.10374
head -5.88672 -2.5332 0.97794
rclavicle 2.52208e-015 8.74653e-015
rhumerus 27.9794 19.7256 -61.3244
rradius 126.403
rwrist -3.7977
rhand -31.2254 -13.3598
rfingers 7.12502
rthumb -4.5008 -43.2919
lclavicle 2.52208e-015 8.74653e-015
lhumerus -39.514 -33.1374 98.3832
lradius 86.8729
lwrist 8.34937
lhand -1.19955 -22.6372
lfingers 7.12502
lthumb 24.4409 5.82365
rfemur 0 0 0
rtibia 0
rfoot 0 0
rtoes 0
lfemur 13.4813 -7.78614 -12.4857
ltibia -17.8716
lfoot -1.9286 18.0686
ltoes -11.7902
564
root -0.937955 18.2537 5.89795 3.11737 2.01555 -4.05255
lowerback 11.1708 2.44791 4.83928
upperback -2.1312 4.04021 0.964054
thorax -8.28909 1.75028 -2.419
lowerneck -6.99752 -4.09875 -1.00632
upperneck -23.2974 -5.14837 1.99349
head -5.85953 -2.50917 0.94464
rclavicle -1.2275e-014 -1.88845e-015
rhumerus 27.0811 19.8777 -61.1909
rradius 126.919
rwrist -1.87466
rhand -31.8098 -11.7688
rfingers 7.12502
rthumb -5.06506 -41.6883
lclavicle -1.2275e-014 -1.88845e-015
lhumerus -39.4896 -33.1723 98.4107
lradius 86.8875
lwrist 8.32072
lhand -1.35439 -22.8288
lfingers 7.12502
lthumb 24.2925 5.65203
rfemur 0 0 0
rtibia 0
rfoot 0 0
rtoes 0
lfemur 13.48 -7.76542 -12.5126
ltibia -17.8694
lfoot -1.91228 18.0628
ltoes -11.8294
565
root -0.942448 18.2524 5.90273 3.07337 2.08159 -4.04658
lowerback 11.1598 2.48073 4.7649
upperback -2.14439 4.07344 0.964194
thorax -8.29949 1.76959 -2.38288
lowerneck -6.92977 -4.03537 -1.03123
upperneck -23.247 -5.09691 1.79364
head -5.86024 -2.46926 0.884803
rclavicle 9.42985e-015 -1.68967e-015
rhumerus 26.002 20.186 -60.9349
rradius 127.635
rwrist 0.866946
rhand -32.9918 -9.94642
rfingers 7.12502
rthumb -6.20627 -39.8355
lclavicle 9.42985e-015 -1.68967e-015
lhumerus -39.3941 -33.1553 98.4483
lradius 86.8352
lwrist 8.23265
lhand -1.37932 -22.93
lfingers 7.12502
lthumb 24.2686 5.55405
rfemur 0 0 0
rtibia 0
rfoot 0 0
rtoes 0
lfemur 13.5184 -7.74412 -12.4995
ltibia -17.8653
lfoot -1.9071 17.9906
ltoes -11.9226
566
root -0.945488 18.2517 5.90805 3.02931 2.16194 -4.02081
lowerback 11.1476 2.48874 4.68876
upperback -2.15612 4.07322 0.965221
thorax -8.31017 1.77281 -2.33901
lowerneck -6.84971 -3.93793 -1.06125
upperneck -23.2062 -5.01058 1.53263
head -5.868 -2.40835 0.80597
rclavicle 6.69532e-014 4.96962e-015
rhumerus 24.9222 20.5314 -60.708
rradius 128.387
rwrist 3.85117
rhand -34.277 -7.10558
rfingers 7.12502
rthumb -7.44694 -36.9545
lclavicle 6.69532e-014 4.96962e-015
lhumerus -39.3047 -33.035 98.4696
lradius 86.8235
lwrist 8.24967
lhand -1.10465 -22.8853
lfingers 7.12502
lthumb 24.5319 5.56327
rfemur 0 0 0
rtibia 0
rfoot 0 0
rtoes 0
lfemur 13.5609 -7.71751 -12.517
ltibia -17.8683
lfoot -1.88471 17.9005
ltoes -12.0744
567
root -0.947416 18.2514 5.91223 3.01314 2.24192 -3.95743
lowerback 11.1245 2.48478 4.60728
upperback -2.15943 4.05337 0.943557
thorax -8.30539 1.76678 -2.31198
lowerneck -6.82986 -3.81384 -1.00961
upperneck -23.139 -4.90303 1.18634
head -5.86205 -2.33872 0.684127
rclavicle 3.84276e-014 4.37326e-015
rhumerus 23.9115 20.9048 -60.6986
rradius 129.254
rwrist 6.64776
rhand -35.3095 -3.3127
rfingers 7.12502
rthumb -8.44343 -33.1239
lclavicle 3.84276e-014 4.37326e-015
lhumerus -39.2987 -32.8624 98.4573
lradius 86.9493
lwrist 8.38035
lhand -0.77709 -22.787
lfingers 7.12502
lthumb 24.8459 5.61861
rfemur 0 0 0
rtibia 0
rfoot 0 0
rtoes 0
lfemur 13.5757 -7.68586 -12.5784
ltibia -17.8756
lfoot -1.88418 17.8265
ltoes -11.9758
568
root -0.950282 18.2499 5.91464 2.98708 2.3459 -3.90241
lowerback 11.1389 2.47645 4.53291
upperback -2.14827 4.03156 0.937498
thorax -8.30738 1.75976 -2.27372
lowerneck -6.84646 -3.70375 -0.991811
upperneck -23.0591 -4.81804 0.813452
head -5.84541 -2.27592 0.559162
rclavicle 5.52559e-014 2.43511e-014
rhumerus 22.9242 21.4293 -60.4701
rradius 130.345
rwrist 9.36943
rhand -36.5398 -0.317565
rfingers 7.12502
rthumb -9.63061 -30.0774
lclavicle 5.52559e-014 2.43511e-014
lhumerus -39.2912 -32.696 98.482
lradius 87.0424
lwrist 8.35606
lhand -0.73848 -22.7205
lfingers 7.12502
lthumb 24.8829 5.67998
rfemur 0 0 0
rtibia 0
rfoot 0 0
rtoes 0
lfemur 13.5912 -7.64807 -12.62
ltibia -17.8893
lfoot -1.86496 17.7073
ltoes -11.7838
569
root -0.953907 18.2481 5.91649 2.95103 2.45634 -3.91462
lowerback 11.1859 2.47651 4.50749
upperback -2.12948 4.03097 0.949892
thorax -8.31673 1.76091 -2.24842
lowerneck -6.94747 -3.62037 -0.933777
upperneck -22.9274 -4.77299 0.408162
head -5.79974 -2.23455 0.415929
rclavicle -1.43436e-014 -7.65321e-015
rhumerus 21.9586 22.014 -60.0127
rradius 131.461
rwrist 12.2328
rhand -37.9374 1.5296
rfingers 7.12502
rthumb -10.9789 -28.1633
lclavicle -1.43436e-014 -7.65321e-015
lhumerus -39.2597 -32.6089 98.5143
lradius 87.0959
lwrist 8.24148
lhand -0.84727 -22.6157
lfingers 7.12502
lthumb 24.7786 5.79916
rfemur 0 0 0
rtibia 0
rfoot 0 0
rtoes 0
lfemur 13.6156 -7.6528 -12.5859
ltibia -17.9161
lfoot -1.82021 17.6261
ltoes -11.7054
